<?xml version="1.0" encoding="UTF-8"?>
<svg width="477px" height="100px" viewBox="0 0 477 100" version="1.1" xmlns="http://www.w3.org/2000/svg" xmlns:xlink="http://www.w3.org/1999/xlink">
    <!-- Generator: Sketch 52.2 (67145) - http://www.bohemiancoding.com/sketch -->
    <title>banner-logo-1</title>
    <desc>Created with Sketch.</desc>
    <g id="组件" stroke="none" stroke-width="1" fill="none" fill-rule="evenodd">
        <g id="banner-logo-1" transform="translate(-1.000000, -3.000000)" fill="#122039">
            <path d="M242.27357,53.661545 L242.27357,53.2987623 L223.629765,53.2987623 L223.629765,82.3213828 C223.629765,85.2236449 226.139508,87.7631242 229.007786,87.7631242 L244.424779,87.7631242 L244.424779,103 L229.366321,103 C215.742001,103 207.137168,94.2932138 207.137168,80.1446863 L207.137168,19.1971831 L223.629765,19.1971831 L223.629765,39.1502347 L242.27357,39.1502347 L242.27357,53.661545 Z M86.8318584,103 L86.8318584,3 L104.420354,3 L104.420354,103 L86.8318584,103 Z M189.548673,33.6448063 L189.548673,103 L172.960688,103 L172.960688,95.0114437 C171.157647,96.4639085 169.354605,97.553257 167.190955,98.6426056 C162.863655,100.458187 158.175746,101.547535 152.766621,101.547535 C148.078712,101.547535 143.390804,100.821303 139.063503,99.0057218 C134.736203,97.1901408 130.769511,94.6483275 127.524036,91.3802817 C124.278561,88.1122359 122.114911,84.4810739 120.311869,80.4867958 C118.508827,76.4925176 117.787611,72.1351232 117.787611,67.4146127 C117.787611,57.2473592 121.033086,48.8956866 127.524036,42.7227113 C134.014986,36.5497359 142.308979,33.2816901 152.766621,33.2816901 C157.815138,33.2816901 162.863655,34.3710387 167.190955,36.5497359 C169.354605,37.6390845 171.518255,38.7284331 173.681905,40.5440141 L173.681905,33.6448063 L189.548673,33.6448063 Z M173.321297,67.7777289 C173.321297,62.3309859 171.518255,57.6104754 167.551563,53.9793134 C164.306088,50.3481514 159.618179,48.5325704 153.848446,48.5325704 C148.078712,48.5325704 143.390804,50.3481514 139.78472,53.9793134 C136.178637,57.2473592 134.375595,61.9678697 134.375595,67.7777289 C134.375595,73.2244718 136.178637,77.9449824 139.78472,81.5761444 C143.390804,85.2073063 148.078712,87.0228873 153.848446,87.0228873 C159.618179,87.0228873 164.306088,85.2073063 167.912171,81.5761444 C171.518255,78.3080986 173.321297,73.587588 173.321297,67.7777289 Z M72.28261,24.0909091 C74.0826759,28.4545455 75.1627155,32.8181818 74.8027023,37.5454545 C74.8027023,42.2727273 73.7226627,46.6363636 71.9225968,51 C70.1225309,55 67.9624518,58.6363636 64.7223332,61.9090909 C61.8422277,64.8181818 58.2420959,67.3636364 53.9219377,69.1818182 C49.9617927,71 45.2816214,72.0909091 40.60145,72.0909091 L17.9206195,72.0909091 L17.9206195,103 L1,103 L1,3 L40.9614632,3 C45.6416345,3 49.9617927,4.09090909 54.2819509,5.90909091 C58.2420959,7.72727273 61.8422277,9.90909091 65.0823464,13.1818182 C67.9624518,16.4545455 70.4825441,20.0909091 72.28261,24.0909091 Z M57.8820827,37.5454545 C57.8820827,32.8181818 56.44203,28.8181818 52.8418982,25.1818182 C49.2417664,21.9090909 45.2816214,20.0909091 40.60145,20.0909091 L17.9206195,20.0909091 L17.9206195,55 L40.60145,55 C45.2816214,55 49.6017795,53.1818182 52.8418982,49.9090909 C56.0820168,46.2727273 57.8820827,42.2727273 57.8820827,37.5454545 Z M478,88.5042665 L477.638631,88.5042665 L477.638631,103 L418.012784,103 L409.339934,103 L354.411881,39.9435592 C355.495987,44.2922792 356.218725,48.6409993 356.218725,53.3521127 C356.218725,80.531613 333.091123,103 304.542991,103 C275.994858,103 252.867257,80.8940064 252.867257,53.3521127 C252.867257,26.1726123 275.994858,3.70422535 304.542991,3.70422535 C315.745423,3.70422535 325.863748,7.32815873 334.17523,12.7640588 L334.17523,3.70422535 L347.184505,3.70422535 L405.364877,68.9350262 L405.364877,3.70422535 L409.701303,3.70422535 L476.193156,3.70422535 L476.193156,18.1999589 L421.987841,18.1999589 L421.987841,43.9298859 L472.940837,43.9298859 L472.940837,58.4256194 L421.987841,58.4256194 L421.987841,88.5042665 L478,88.5042665 Z M312.493104,85.9675131 C324.779642,83.0683664 334.897967,73.2837463 337.427549,60.9623728 C342.84808,36.3196258 321.527323,14.9384188 296.954247,20.3743189 C284.667708,22.9110723 274.910752,33.0580857 272.019801,45.3794592 C266.59927,70.0222062 287.920027,91.4034132 312.493104,85.9675131 Z"></path>
        </g>
    </g>
</svg>